<svg version="1.0" xmlns="http://www.w3.org/2000/svg" width="257.000000ptpx" height="196.000000ptpx" viewBox="0 0 257.000000 196.000000" preserveAspectRatio="xMidYMid meet" transform="rotate(0) scale(1, 1)">

<g transform="translate(0.000000,196.000000) scale(0.100000,-0.100000)" fill="#f9f871" stroke="none">
<path d="M1205 1928 c-85 -49 -109 -166 -50 -243 15 -20 38 -41 51 -47 23 -11&#10;24 -15 24 -119 l0 -108 -337 -3 c-327 -3 -340 -4 -387 -26 -118 -54 -192 -156&#10;-204 -280 l-7 -67 -102 -5 c-114 -6 -144 -19 -176 -81 -16 -30 -17 -60 -15&#10;-271 3 -221 4 -238 24 -264 42 -57 66 -67 172 -72 l100 -5 6 -43 c13 -100 87&#10;-201 182 -249 l59 -30 726 -3 c726 -2 727 -2 785 19 69 26 154 101 183 163 11&#10;22 25 64 31 92 l11 51 95 5 c102 6 127 16 168 72 20 26 21 43 24 264 3 266 -1&#10;285 -67 329 -29 20 -47 23 -126 23 l-92 0 -7 61 c-13 126 -93 240 -203 292&#10;-46 21 -62 22 -390 25 l-343 3 0 105 0 104 33 21 c53 35 71 67 75 134 3 50 0&#10;66 -20 94 -36 53 -71 74 -130 78 -42 3 -62 -1 -93 -19z m855 -634 c67 -38 114&#10;-103 130 -178 7 -37 10 -181 8 -438 l-3 -383 -28 -57 c-16 -32 -45 -71 -65&#10;-88 -74 -61 -57 -60 -821 -60 l-696 0 -50 24 c-60 28 -116 87 -139 147 -15 39&#10;-17 90 -14 464 l3 420 27 47 c16 25 45 61 65 78 73 60 60 59 828 57 l700 -2&#10;55 -31z m-1760 -604 l0 -260 -90 0 c-135 0 -130 -11 -130 260 0 271 -5 260&#10;130 260 l90 0 0 -260z m2170 238 c19 -21 20 -34 20 -240 0 -267 4 -258 -125&#10;-258 l-85 0 0 260 0 260 85 0 c74 0 87 -3 105 -22z"/>
<path d="M790 1027 c-19 -6 -51 -28 -71 -48 -68 -68 -73 -177 -12 -249 108&#10;-129 315 -67 331 99 6 66 -12 113 -58 155 -57 51 -119 65 -190 43z m105 -81&#10;c38 -16 65 -60 65 -107 0 -43 -56 -99 -99 -99 -76 0 -133 69 -111 134 12 38&#10;33 60 70 75 34 13 36 13 75 -3z"/>
<path d="M1665 1028 c-127 -45 -173 -198 -88 -298 113 -135 333 -57 333 119 0&#10;124 -130 219 -245 179z m100 -82 c38 -16 65 -60 65 -107 0 -43 -56 -99 -99&#10;-99 -76 0 -133 69 -111 134 12 38 33 60 70 75 34 13 36 13 75 -3z"/>
<path d="M982 468 c-38 -38 2 -82 123 -140 66 -31 76 -33 180 -33 96 1 118 4&#10;172 27 90 38 153 84 153 111 0 57 -54 61 -136 12 -130 -79 -259 -77 -380 5&#10;-47 31 -91 39 -112 18z"/>
</g>
</svg>